<?xml version="1.0" standalone="no"?>
<!DOCTYPE svg PUBLIC "-//W3C//DTD SVG 20010904//EN"
 "http://www.w3.org/TR/2001/REC-SVG-20010904/DTD/svg10.dtd">
<svg version="1.0" xmlns="http://www.w3.org/2000/svg"
 width="512.000000pt" height="512.000000pt" viewBox="0 0 512.000000 512.000000"
 preserveAspectRatio="xMidYMid meet">

<g transform="translate(0.000000,512.000000) scale(0.100000,-0.100000)"
fill="#000000" stroke="none">
<path d="M657 4774 c-266 -48 -502 -242 -599 -492 -60 -154 -58 -87 -58 -1722
0 -1635 -2 -1568 58 -1722 67 -174 212 -332 382 -417 187 -93 2 -86 2120 -86
2118 0 1933 -7 2120 86 220 110 379 322 426 566 37 193 -7 302 -133 339 -48
14 -58 14 -106 0 -87 -25 -147 -106 -147 -198 0 -132 -78 -267 -191 -335 -112
-67 13 -63 -1969 -63 -1982 0 -1857 -4 -1969 63 -68 41 -115 95 -155 177 l-31
65 -3 1268 -2 1267 2160 0 2160 0 0 -735 c0 -641 2 -740 15 -773 69 -163 301
-163 370 0 13 33 15 155 15 1017 0 1068 1 1053 -58 1203 -78 202 -260 380
-468 457 -138 52 -87 51 -2043 50 -1521 -1 -1829 -3 -1894 -15z m3756 -399
c82 -21 133 -50 189 -106 61 -61 106 -154 114 -237 l7 -62 -2163 0 -2163 0 7
62 c16 160 137 299 296 342 84 22 3627 23 3713 1z"/>
<path d="M1750 3192 c-139 -71 -362 -205 -403 -242 -228 -204 -228 -576 0
-780 27 -25 133 -92 234 -149 168 -96 189 -105 244 -109 49 -3 68 1 105 20
116 62 141 215 51 307 -20 20 -103 75 -186 121 -82 46 -162 95 -178 109 -56
51 -54 136 4 187 13 11 92 58 174 104 83 46 166 101 186 121 90 92 65 245 -50
306 -54 28 -132 31 -181 5z"/>
<path d="M2580 3199 c-29 -12 -64 -43 -91 -80 -22 -31 -229 -953 -229 -1019 0
-51 28 -108 74 -148 86 -75 244 -45 296 57 11 22 67 255 125 518 100 448 106
481 95 527 -21 97 -94 157 -192 155 -29 0 -64 -5 -78 -10z"/>
<path d="M3190 3188 c-115 -58 -141 -215 -51 -307 20 -21 104 -75 186 -121
167 -92 201 -119 214 -167 12 -44 -2 -93 -36 -125 -16 -14 -95 -63 -178 -108
-172 -96 -217 -136 -235 -208 -40 -169 138 -300 296 -216 167 88 344 195 387
234 112 100 169 232 169 390 0 158 -57 290 -169 390 -43 39 -220 146 -387 234
-63 34 -134 35 -196 4z"/>
<path d="M1207 1565 c-103 -36 -157 -164 -113 -268 17 -42 76 -93 123 -107 26
-8 196 -10 539 -8 l500 3 36 24 c108 74 124 213 34 306 -25 27 -56 47 -81 54
-63 17 -989 14 -1038 -4z"/>
<path d="M2843 1556 c-150 -70 -150 -289 2 -357 37 -17 77 -19 541 -19 l501 0
44 23 c60 32 99 89 105 158 5 46 2 62 -23 109 -23 44 -39 60 -82 82 l-53 28
-492 0 -491 0 -52 -24z"/>
</g>
</svg>
